<svg t="1699765471342" class="icon" viewBox="0 0 1024 1024" version="1.1" xmlns="http://www.w3.org/2000/svg" p-id="15338" width="200" height="200"><path d="M945.105455 710.981818l-116.363637-51.898182-24.669091-10.938181-36.538182 16.290909-209.454545 93.090909a111.941818 111.941818 0 0 1-46.545455 9.541818 113.803636 113.803636 0 0 1-45.381818-9.309091l-209.454545-93.090909-36.538182-16.058182-24.669091 10.938182-116.363636 51.898182a42.356364 42.356364 0 0 0 0 80.989091l404.712727 179.665454a72.145455 72.145455 0 0 0 56.785455 0L945.105455 791.272727a42.356364 42.356364 0 0 0 0-80.290909z" p-id="15339" fill="#4DC2FF"></path><path d="M947.432727 456.843636L837.818182 408.436364l-69.818182 32.116363-129.396364 57.018182L558.545455 533.178182l-8.61091 3.723636h-1.163636a114.734545 114.734545 0 0 1-72.145454 0h-1.396364l-9.774546-3.723636-79.36-35.374546-129.62909-57.483636L186.181818 408.669091l-109.614545 48.174545a42.589091 42.589091 0 0 0 0 81.454546l117.76 52.130909 77.730909 34.676364h2.094545l209.454546 93.090909a72.145455 72.145455 0 0 0 56.785454 0l209.454546-93.090909h2.094545l77.730909-34.676364 117.76-52.130909a42.589091 42.589091 0 0 0 0-81.454546z" fill="#81D7FE" p-id="15340"></path><path d="M76.567273 314.414545L186.181818 362.821818l8.610909 3.723637 17.221818 7.68 25.6 11.403636 37.003637 16.523636 129.629091 57.250909 79.592727 35.607273a72.145455 72.145455 0 0 0 56.785455 0l79.592727-35.607273 129.629091-57.250909 37.003636-16.523636 25.6-11.403636 17.221818-7.68 8.843637-3.956364 108.916363-48.174546a42.589091 42.589091 0 0 0 0-81.454545L540.392727 52.363636a72.145455 72.145455 0 0 0-56.785454 0L76.567273 232.727273a42.589091 42.589091 0 0 0 0 81.687272z" fill="#4DC2FF" p-id="15341"></path></svg>
